<svg width="806" height="931" viewBox="0 0 806 931" fill="none" xmlns="http://www.w3.org/2000/svg">
<path opacity="0.6" d="M648.688 174.125C637.975 172.203 627.306 178.59 621.109 189.161L620.574 192.139C620.681 191.544 620.437 191.193 620.246 190.543C619.842 191.086 619.789 191.384 619.384 191.926L619.919 188.947C618.081 176.935 610.298 167.237 599.585 165.315C585.002 162.698 569.717 172.561 568.463 193.242C567.836 203.583 577.763 216.74 585.774 232.012L606.45 264.008C606.694 264.359 606.694 264.359 606.938 264.71C607.236 264.764 607.587 264.519 607.64 264.221L638.151 241.411C650.972 229.876 664.853 220.991 667.861 211.078C674.174 191.304 663.271 176.742 648.688 174.125Z" fill="#F4378A" fill-opacity="0.2"/>
<path opacity="0.6" d="M217.067 12.8766C207.64 18.3189 203.608 30.0813 205.692 42.1565L207.205 44.7773C206.903 44.2531 206.489 44.1422 205.925 43.7693C205.966 44.4446 206.117 44.7067 206.158 45.382L204.645 42.7613C195.491 34.7678 183.289 32.3783 173.862 37.8206C161.032 45.2282 155.714 62.6249 168.098 79.2364C174.29 87.5422 190.362 91.1919 206.335 97.694L242.774 108.804C243.188 108.914 243.187 108.914 243.601 109.025C243.862 108.874 243.973 108.461 243.822 108.199L252.42 71.0871C254.776 54.0027 259.651 38.2589 255.554 28.7438C247.622 9.56223 229.897 5.46898 217.067 12.8766Z" fill="#F4378A" fill-opacity="0.2"/>
<path opacity="0.6" d="M239.66 380.419C221.053 384.516 208.106 402.011 205.199 423.262L206.338 428.435C206.11 427.401 205.479 426.997 204.735 426.077C204.446 427.225 204.56 427.742 204.271 428.891L203.132 423.718C192.084 405.54 172.986 395.1 154.379 399.198C129.053 404.774 110.982 430.991 122.863 465.258C128.803 482.391 153.692 496.978 176.908 516.274L231.837 554.078C232.467 554.482 232.467 554.482 233.098 554.885C233.615 554.771 234.018 554.14 233.904 553.623L267.874 496.243C280.838 468.981 297.297 445.289 295.492 427.245C292.397 391.044 264.986 374.842 239.66 380.419Z" fill="#F4378A" fill-opacity="0.31"/>
<path opacity="0.6" d="M637.87 463.685C595.42 471.275 564.563 509.677 556.073 557.478L558.184 569.28C557.762 566.919 556.371 565.95 554.77 563.801C554.013 566.372 554.224 567.552 553.467 570.123L551.357 558.321C528.008 516.214 485.755 490.884 443.304 498.475C385.524 508.807 342.292 566.473 366.076 645.041C377.968 684.325 432.944 719.559 483.712 765.289L604.537 855.736C605.928 856.706 605.928 856.706 607.318 857.675C608.497 857.464 609.465 856.073 609.254 854.893L691.249 728.18C723.024 667.69 762.383 615.588 759.925 574.617C756.187 492.464 695.651 453.353 637.87 463.685Z" fill="#F4378A" fill-opacity="0.31"/>
<path opacity="0.6" d="M266.464 640.808C235.343 635.224 204.352 653.777 186.35 684.484L184.797 693.137C185.108 691.406 184.398 690.386 183.845 688.5C182.67 690.075 182.514 690.941 181.339 692.516L182.892 683.864C177.553 648.968 154.946 620.798 123.825 615.214C81.4648 607.613 37.0621 636.262 33.4207 696.34C31.6 726.378 60.435 764.597 83.7055 808.962L143.768 901.904C144.477 902.924 144.477 902.924 145.186 903.945C146.051 904.1 147.07 903.39 147.226 902.525L235.855 836.263C273.098 802.756 313.422 776.947 322.158 748.149C340.496 690.709 308.824 648.409 266.464 640.808Z" fill="#F4378A" fill-opacity="0.43"/>
</svg>
