<svg width="133" height="132" viewBox="0 0 133 132" fill="none" xmlns="http://www.w3.org/2000/svg">
<path d="M113.749 57.3362C102.784 63.6025 87.1207 65.4824 75.2162 61.096C67.3843 58.2762 60.8055 52.9498 53.2868 49.1901C41.6956 43.2371 29.4778 41.0439 17.2601 46.3703C14.4406 47.6235 7.86179 51.07 7.23524 54.5164C6.92196 57.3362 11.9344 62.6625 13.814 64.8557C19.7663 72.6885 26.0318 80.8347 32.9239 87.7276L65.5046 122.505C66.7577 124.072 69.2639 124.072 70.517 122.505L102.158 87.7276C111.869 75.5084 132.546 58.9028 131.919 41.9839C126.593 46.9969 121.581 52.3232 115.316 56.083C114.689 56.3963 114.376 56.7096 113.749 57.3362Z" fill="url(#paint0_linear_57_917)"/>
<path d="M115.315 56.083C114.689 56.3963 114.062 56.7096 113.749 57.0229C104.35 62.3492 91.8194 64.5424 80.8547 62.3492L28.5376 82.7146C30.104 84.2811 31.3571 86.161 32.9235 87.7276L65.5042 122.505C66.7573 124.072 69.2635 124.072 70.5166 122.505L102.158 87.7276C111.869 75.5084 132.545 58.9028 131.919 41.9839C126.906 46.9969 121.581 52.0099 115.315 56.083Z" fill="url(#paint1_linear_57_917)"/>
<path d="M94.9525 0C83.3613 0 73.3365 6.26626 66.1311 15.979C58.9258 6.26626 48.9009 0 37.3097 0C16.0069 0 -2.78967 17.8588 0.34309 47.3102C0.656367 49.5034 1.28292 51.6966 2.22275 54.2031C7.23517 67.049 21.6459 81.148 34.8035 97.7536L65.8178 130.651V131.591L66.4444 130.965L67.0709 131.591V130.651L98.0853 97.7536C113.436 78.3282 130.666 62.3493 132.546 47.6236C135.052 17.8588 116.255 0 94.9525 0ZM118.762 46.3703C117.508 57.0229 104.977 68.6155 94.0127 82.7146L67.0709 111.539C66.7577 111.853 66.7577 111.853 66.4444 112.166C66.1311 112.166 65.8178 111.853 65.8178 111.539L38.8761 82.7146C27.9114 68.6155 15.3804 57.0229 14.1272 46.3703C11.3078 25.065 24.7786 12.5325 40.1292 12.5325C51.4071 12.5325 61.1187 20.992 65.5046 32.8979V36.031C65.5046 35.4044 65.8178 35.091 66.1311 34.4644C66.4444 35.091 66.4444 35.4044 66.7577 36.031V32.8979C71.1435 20.6786 80.8551 12.5325 92.133 12.5325C107.484 12.5325 120.954 25.065 118.762 46.3703Z" fill="url(#paint2_linear_57_917)"/>
<defs>
<linearGradient id="paint0_linear_57_917" x1="69.5771" y1="41.9839" x2="69.5771" y2="123.68" gradientUnits="userSpaceOnUse">
<stop offset="0.163462" stop-color="#F4378A"/>
<stop offset="1" stop-color="#FCC9E0"/>
</linearGradient>
<linearGradient id="paint1_linear_57_917" x1="80.2351" y1="41.9839" x2="80.2351" y2="123.68" gradientUnits="userSpaceOnUse">
<stop stop-color="#FAA9CD"/>
<stop offset="1" stop-color="#F4378A"/>
</linearGradient>
<linearGradient id="paint2_linear_57_917" x1="0.0298141" y1="65.6961" x2="132.205" y2="65.6961" gradientUnits="userSpaceOnUse">
<stop stop-color="#FAED9A"/>
<stop offset="0.9955" stop-color="#F43187"/>
</linearGradient>
</defs>
</svg>
