<svg width="508" height="165" viewBox="0 0 508 165" fill="none" xmlns="http://www.w3.org/2000/svg">
<g clip-path="url(#clip0_37_2964)">
<path d="M173.695 28.7468V20.0833H184.403V13.7826H173.695V5.11912H194.713V19.2957H199.869V3.54395H209.783V48.0428H199.869V29.1406H194.713V48.0428H184.403V28.7468H173.695ZM212.955 3.54395H222.869V48.0428H212.955V3.54395Z" fill="url(#paint0_linear_37_2964)" stroke="#F42E85" stroke-width="0.2022" stroke-miterlimit="10"/>
<path d="M228.818 5.11912H257.767V48.0428H228.818V5.11912ZM250.232 21.2647V19.2957L236.353 24.0213V25.9902L250.232 21.2647ZM250.232 29.1406V27.1716L236.353 31.8972V33.8661L250.232 29.1406ZM275.216 48.0428H264.112V3.54395H275.216V48.0428Z" fill="url(#paint1_linear_37_2964)" stroke="#F42E85" stroke-width="0.2022" stroke-miterlimit="10"/>
<path d="M281.164 28.7468V20.0833H291.872V13.7826H281.164V5.11912H302.182V19.2957H307.338V3.54395H317.252V48.0428H307.338V29.1406H302.182V48.0428H291.872V28.7468H281.164ZM320.424 3.54395H330.339V48.0428H320.424V3.54395Z" fill="url(#paint2_linear_37_2964)" stroke="#F42E85" stroke-width="0.2022" stroke-miterlimit="10"/>
<path d="M335.891 5.11912H364.84V48.0428H335.891V5.11912ZM357.305 21.2647V19.2957L343.425 24.0213V25.9902L357.305 21.2647ZM357.305 29.1406V27.1716L343.425 31.8972V33.8661L357.305 29.1406ZM382.685 48.0428H371.581V3.54395H382.685V48.0428Z" fill="url(#paint3_linear_37_2964)" stroke="#F42E85" stroke-width="0.2022" stroke-miterlimit="10"/>
<path d="M203.041 94.9044H219.697L225.646 152.398H205.817L201.059 105.931L194.317 152.398H173.299L184.403 85.0595H173.299V67.7325H188.765V56.3125H211.369V67.7325H226.042V85.0595H204.628L203.041 94.9044ZM223.663 95.2982H232.784V58.2815H253.802V153.58H232.784V116.563H223.663V95.2982ZM259.75 58.2815H280.768V153.58H259.75V58.2815Z" fill="url(#paint4_linear_37_2964)" stroke="#F42E85" stroke-width="0.2022" stroke-miterlimit="10"/>
<path d="M291.872 82.6968C291.872 77.5774 293.062 73.2457 295.838 69.7015C298.614 66.1574 302.579 63.007 307.338 61.0381C312.097 59.0691 318.045 57.8877 323.994 57.8877C330.339 57.8877 335.891 59.0691 340.649 61.0381C345.408 63.007 349.374 65.7636 352.15 69.7015C354.926 73.2457 356.116 77.5774 356.116 82.6968V94.5106C356.116 99.6299 354.926 103.962 352.15 107.506C349.374 111.05 345.408 114.2 340.649 116.169C335.891 118.138 330.339 119.32 323.994 119.32C317.649 119.32 312.097 118.138 307.338 116.169C302.579 114.2 298.614 111.444 295.838 107.506C293.062 103.962 291.872 99.6299 291.872 94.5106V82.6968ZM302.579 124.833H326.373V138.222H394.186V157.518H302.579V124.833ZM339.856 85.8471V81.1216L310.114 91.754V96.4796L339.856 85.8471ZM369.599 121.682V58.2815H393.393V121.682H369.599Z" fill="url(#paint5_linear_37_2964)" stroke="#F42E85" stroke-width="0.2022" stroke-miterlimit="10"/>
<path d="M440.584 92.1476H463.585L473.499 152.398H450.498L440.584 92.1476L430.67 152.398H406.083L419.169 78.7586H404.496V61.4316H471.913V78.7586H442.963L440.584 92.1476ZM483.81 58.2812H507.603V153.58H483.81V58.2812Z" fill="url(#paint6_linear_37_2964)"/>
<path d="M440.584 92.1476H463.585L473.499 152.398H450.498L440.584 92.1476ZM440.584 92.1476L430.67 152.398H406.083L419.169 78.7586H404.496V61.4316H471.913V78.7586H442.963L440.584 92.1476ZM483.81 58.2812H507.603V153.58H483.81V58.2812Z" stroke="#F42E85" stroke-width="0.2022" stroke-miterlimit="10"/>
<path d="M158.625 163.425V140.191C158.625 140.191 158.229 140.191 158.229 139.797L124.124 103.568C110.245 85.8473 94.3819 71.2768 92.7957 57.8878C89.6231 31.5036 107.072 15.7518 126.504 15.7518C140.78 15.7518 153.074 26.3842 158.625 41.3484V41.7422V19.6897C149.504 7.4821 136.814 0 122.538 0C107.072 0 92.3991 7.4821 83.6747 20.8711C74.9502 7.8759 61.8636 0 47.1907 0C20.2242 0 -3.56968 22.4463 0.395976 59.463C2.3788 77.9714 24.5865 98.0549 44.0181 122.47L83.6747 164.606V165.394L84.0712 165L84.4678 165.394V164.606L122.141 125.227L158.625 163.819C158.625 163.425 158.625 163.425 158.625 163.425ZM85.2609 140.191C84.8644 140.585 84.4678 140.979 84.0712 140.979C83.6747 140.979 83.2781 140.585 82.8815 140.191L48.7769 103.962C34.8971 86.2411 19.0345 71.6706 17.4483 58.2816C14.2758 31.5036 31.3281 15.7518 50.7598 15.7518C61.8636 15.7518 71.7777 22.4463 78.5193 32.2912C75.7434 40.1671 74.9502 49.2243 76.1399 59.463C78.1228 75.2148 94.3819 92.5418 111.434 112.625L85.2609 140.191Z" fill="url(#paint7_linear_37_2964)"/>
</g>
<defs>
<linearGradient id="paint0_linear_37_2964" x1="198.403" y1="3.62664" x2="198.403" y2="48.1002" gradientUnits="userSpaceOnUse">
<stop stop-color="white"/>
<stop offset="0.9955" stop-color="#F42E85"/>
</linearGradient>
<linearGradient id="paint1_linear_37_2964" x1="252.086" y1="3.62664" x2="252.086" y2="48.1002" gradientUnits="userSpaceOnUse">
<stop stop-color="white"/>
<stop offset="0.9955" stop-color="#F42E85"/>
</linearGradient>
<linearGradient id="paint2_linear_37_2964" x1="305.601" y1="3.62664" x2="305.601" y2="48.1002" gradientUnits="userSpaceOnUse">
<stop stop-color="white"/>
<stop offset="0.9955" stop-color="#F42E85"/>
</linearGradient>
<linearGradient id="paint3_linear_37_2964" x1="359.282" y1="3.62664" x2="359.282" y2="48.1002" gradientUnits="userSpaceOnUse">
<stop stop-color="white"/>
<stop offset="0.9955" stop-color="#F42E85"/>
</linearGradient>
<linearGradient id="paint4_linear_37_2964" x1="227" y1="56.4933" x2="227" y2="153.468" gradientUnits="userSpaceOnUse">
<stop stop-color="white"/>
<stop offset="0.9955" stop-color="#F42E85"/>
</linearGradient>
<linearGradient id="paint5_linear_37_2964" x1="343.175" y1="57.9279" x2="343.175" y2="157.169" gradientUnits="userSpaceOnUse">
<stop stop-color="white"/>
<stop offset="0.9955" stop-color="#F42E85"/>
</linearGradient>
<linearGradient id="paint6_linear_37_2964" x1="456.043" y1="58.1647" x2="456.043" y2="153.468" gradientUnits="userSpaceOnUse">
<stop stop-color="white"/>
<stop offset="0.9955" stop-color="#F42E85"/>
</linearGradient>
<linearGradient id="paint7_linear_37_2964" x1="-0.000589483" y1="82.5717" x2="158.821" y2="82.5717" gradientUnits="userSpaceOnUse">
<stop stop-color="#FAED9A"/>
<stop offset="0.9955" stop-color="#F43187"/>
</linearGradient>
<clipPath id="clip0_37_2964">
<rect width="508" height="165" fill="white"/>
</clipPath>
</defs>
</svg>
