<svg width="471" height="183" viewBox="0 0 471 183" fill="none" xmlns="http://www.w3.org/2000/svg">
<g filter="url(#filter0_d_64_1768)">
<path d="M454.835 56.4749H434.472C431.711 56.4749 428.95 57.8531 427.224 59.5759C426.188 59.2314 425.153 59.2314 424.118 59.2314H366.48C365.445 59.2314 364.755 59.5759 363.719 59.5759C361.994 57.8531 359.923 56.4749 357.162 56.4749V18.2282C357.162 12.7152 352.675 8.23585 347.498 8.23585H337.834C336.109 8.23585 334.383 8.58042 333.002 9.61411C332.657 9.61411 332.657 9.61411 332.312 9.61411H307.463C307.463 9.61411 307.463 9.61411 307.117 9.61411C305.737 8.92498 304.011 8.23585 302.286 8.23585H293.657C293.312 8.23585 292.622 8.23585 292.277 8.23585C291.932 8.23585 291.241 8.23585 290.896 8.23585H282.613C280.887 8.23585 279.162 8.58042 277.781 9.61411H260.179C258.799 8.92498 257.073 8.23585 255.347 8.23585H245.684C243.958 8.23585 242.232 8.58042 240.852 9.61411C240.507 9.61411 240.507 9.61411 240.161 9.61411H215.312C215.312 9.61411 215.312 9.61411 214.967 9.61411C213.586 8.92498 211.861 8.23585 210.135 8.23585H201.507C201.161 8.23585 200.471 8.23585 200.126 8.23585C199.781 8.23585 199.091 8.23585 198.745 8.23585H190.117C188.391 8.23585 186.666 8.58042 185.285 9.61411H167.683C162.506 9.61411 158.365 13.4043 158.02 18.5728C148.011 7.20216 135.241 1 121.781 1C109.011 1 96.9311 5.8239 87.9576 14.0934C78.9841 5.47934 67.5947 1 55.8602 1C41.3646 1 27.9044 6.85759 18.5858 17.5391C8.23177 29.5988 3.3999 46.1379 5.4707 64.7444C7.19637 80.2498 18.9309 94.3769 32.7362 110.571C36.8778 115.395 41.3646 120.564 45.5062 126.077C45.8513 126.421 45.8513 126.421 46.1965 126.766L79.3293 162.601C80.3647 164.668 82.0903 166.391 84.5063 167.425C85.5417 167.769 86.9222 168.114 87.9576 168.114H88.3027C89.6833 168.114 90.7187 167.769 91.7541 167.425C94.17 166.391 95.8957 164.668 96.9311 162.601L120.4 137.103C122.816 139.515 125.232 141.927 127.648 143.994L145.595 163.29C147.321 165.013 150.082 166.391 152.843 166.391H153.188C155.604 166.391 158.02 165.357 160.091 163.634C161.471 162.256 162.506 160.189 162.852 158.121C164.232 158.81 165.613 159.155 167.338 159.155H185.285C187.011 159.155 188.737 158.81 190.462 157.777C191.843 158.81 193.568 159.155 195.639 159.155H212.896C213.586 159.155 213.931 159.155 214.622 159.155C216.002 159.844 217.383 160.189 219.108 160.189H237.4C238.091 160.189 239.126 160.189 239.816 159.844C240.507 160.189 241.542 160.189 242.232 160.189H260.524C264.666 160.189 268.117 157.777 269.498 153.987C269.843 159.155 273.985 163.29 279.162 163.29H358.197C361.648 163.29 364.41 161.567 366.48 158.81C367.171 158.81 367.861 159.155 368.551 159.155H389.604C393.056 159.155 396.507 157.088 398.233 153.987C399.958 157.088 403.065 159.155 406.861 159.155H426.879C428.259 159.155 429.295 158.81 430.33 158.466C431.711 159.5 433.781 160.189 435.852 160.189H456.215C461.737 160.189 465.879 155.709 465.879 150.196V66.4672C464.498 60.9542 460.012 56.4749 454.835 56.4749Z" fill="white" stroke="black" stroke-width="0.5047" stroke-miterlimit="10"/>
<path d="M165.267 39.5917V32.0113H174.586V26.4982H165.267V18.9178H183.56V31.3221H188.046V17.5396H196.675V56.4753H188.046V39.9362H183.56V56.4753H174.586V39.5917H165.267ZM199.436 17.5396H208.064V56.4753H199.436V17.5396Z" fill="url(#paint0_linear_64_1768)" stroke="#F42E85" stroke-width="0.2022" stroke-miterlimit="10"/>
<path d="M212.896 18.9178H238.091V56.4753H212.896V18.9178ZM231.533 33.0449V31.3221L219.453 35.4569V37.1797L231.533 33.0449ZM231.533 39.9362V38.2134L219.453 42.3482V44.071L231.533 39.9362ZM253.622 56.4753H243.958V17.5396H253.622V56.4753Z" fill="url(#paint1_linear_64_1768)" stroke="#F42E85" stroke-width="0.2022" stroke-miterlimit="10"/>
<path d="M258.453 39.5917V32.0113H267.772V26.4982H258.453V18.9178H276.746V31.3221H281.232V17.5396H289.861V56.4753H281.232V39.9362H276.746V56.4753H267.772V39.5917H258.453ZM292.622 17.5396H301.25V56.4753H292.622V17.5396Z" fill="url(#paint2_linear_64_1768)" stroke="#F42E85" stroke-width="0.2022" stroke-miterlimit="10"/>
<path d="M306.427 18.9178H331.622V56.4753H306.427V18.9178ZM324.719 33.0449V31.3221L312.64 35.4569V37.1797L324.719 33.0449ZM324.719 39.9362V38.2134L312.64 42.3482V44.071L324.719 39.9362ZM346.808 56.4753H337.144V17.5396H346.808V56.4753Z" fill="url(#paint3_linear_64_1768)" stroke="#F42E85" stroke-width="0.2022" stroke-miterlimit="10"/>
<path d="M190.462 97.4787H204.958L210.135 147.785H192.878L188.737 107.127L182.524 147.785H164.232L173.896 88.8646H164.232V73.7038H177.692V63.7114H197.365V73.7038H210.135V88.8646H191.498L190.462 97.4787ZM208.754 97.8233H216.692V65.4342H234.984V148.819H216.692V116.43H208.754V97.8233ZM240.161 65.4342H258.453V148.819H240.161V65.4342Z" fill="url(#paint4_linear_64_1768)" stroke="#F42E85" stroke-width="0.2022" stroke-miterlimit="10"/>
<path d="M268.117 86.7969C268.117 82.3176 269.152 78.5274 271.568 75.4263C273.984 72.3252 277.436 69.5687 281.577 67.8459C285.719 66.1231 290.896 65.0894 296.073 65.0894C301.595 65.0894 306.427 66.1231 310.568 67.8459C314.71 69.5687 318.161 71.9806 320.577 75.4263C322.993 78.5274 324.029 82.3176 324.029 86.7969V97.1338C324.029 101.613 322.993 105.403 320.577 108.504C318.161 111.606 314.71 114.362 310.568 116.085C306.427 117.808 301.595 118.841 296.073 118.841C290.551 118.841 285.719 117.808 281.577 116.085C277.436 114.362 273.984 111.95 271.568 108.504C269.152 105.403 268.117 101.613 268.117 97.1338V86.7969ZM277.436 123.665H298.144V135.38H357.162V152.264H277.436V123.665ZM309.878 89.5534V85.4186L283.993 94.7219V98.8567L309.878 89.5534ZM335.418 120.909V65.4339H356.126V120.909H335.418Z" fill="url(#paint5_linear_64_1768)" stroke="#F42E85" stroke-width="0.2022" stroke-miterlimit="10"/>
<path d="M397.197 95.0666H417.215L425.843 147.785H405.826L397.197 95.0666L388.569 147.785H367.171L378.56 83.3514H365.79V68.1906H424.118V83.3514H398.923L397.197 95.0666ZM434.817 65.4341H455.525V148.819H434.817V65.4341Z" fill="url(#paint6_linear_64_1768)"/>
<path d="M397.197 95.0666H417.215L425.843 147.785H405.826L397.197 95.0666ZM397.197 95.0666L388.569 147.785H367.171L378.56 83.3514H365.79V68.1906H424.118V83.3514H398.923L397.197 95.0666ZM434.817 65.4341H455.525V148.819H434.817V65.4341Z" stroke="#F42E85" stroke-width="0.2022" stroke-miterlimit="10"/>
<path d="M152.152 157.433V137.103C152.152 137.103 151.807 137.103 151.807 136.759L122.126 105.059C110.046 89.5535 96.2408 76.8046 94.8602 65.0894C92.0991 41.6591 107.285 27.5319 124.197 27.5319C136.621 27.5319 147.321 36.8352 152.152 49.9286V50.2732V31.6667C144.214 20.9852 133.17 14.4385 120.745 14.4385C107.285 14.4385 94.5151 20.9852 86.9221 32.7004C78.9841 21.6743 67.5947 14.4385 54.8247 14.4385C31.3557 14.4385 10.6476 34.0786 14.4441 66.4677C16.1698 82.6622 35.4973 100.235 52.4088 121.598L86.9221 158.466V159.156L87.2673 158.811L87.6124 159.156V158.466L120.4 124.01L152.152 157.777C151.807 157.433 151.807 157.433 152.152 157.433ZM87.9575 137.103C87.6124 137.448 87.2673 137.793 86.9221 137.793C86.577 137.793 86.2319 137.448 85.8867 137.103L56.2053 105.403C44.1256 89.8981 30.3203 77.1492 28.9397 65.434C26.1787 42.0036 41.3645 27.8765 58.2761 27.8765C67.9398 27.8765 76.5681 33.7341 82.4354 42.3482C80.0195 49.2395 79.3292 57.1645 80.3646 66.1231C82.0903 79.9057 96.2408 95.0665 111.081 112.639L87.9575 137.103Z" fill="url(#paint7_linear_64_1768)"/>
</g>
<defs>
<filter id="filter0_d_64_1768" x="0.747681" y="0.747559" width="469.383" height="181.619" filterUnits="userSpaceOnUse" color-interpolation-filters="sRGB">
<feFlood flood-opacity="0" result="BackgroundImageFix"/>
<feColorMatrix in="SourceAlpha" type="matrix" values="0 0 0 0 0 0 0 0 0 0 0 0 0 0 0 0 0 0 127 0" result="hardAlpha"/>
<feOffset dy="10"/>
<feGaussianBlur stdDeviation="2"/>
<feComposite in2="hardAlpha" operator="out"/>
<feColorMatrix type="matrix" values="0 0 0 0 0 0 0 0 0 0 0 0 0 0 0 0 0 0 0.25 0"/>
<feBlend mode="normal" in2="BackgroundImageFix" result="effect1_dropShadow_64_1768"/>
<feBlend mode="normal" in="SourceGraphic" in2="effect1_dropShadow_64_1768" result="shape"/>
</filter>
<linearGradient id="paint0_linear_64_1768" x1="186.573" y1="17.6126" x2="186.573" y2="56.5263" gradientUnits="userSpaceOnUse">
<stop stop-color="white"/>
<stop offset="0.9955" stop-color="#F42E85"/>
</linearGradient>
<linearGradient id="paint1_linear_64_1768" x1="233.294" y1="17.6126" x2="233.294" y2="56.5263" gradientUnits="userSpaceOnUse">
<stop stop-color="white"/>
<stop offset="0.9955" stop-color="#F42E85"/>
</linearGradient>
<linearGradient id="paint2_linear_64_1768" x1="279.869" y1="17.6126" x2="279.869" y2="56.5263" gradientUnits="userSpaceOnUse">
<stop stop-color="white"/>
<stop offset="0.9955" stop-color="#F42E85"/>
</linearGradient>
<linearGradient id="paint3_linear_64_1768" x1="326.588" y1="17.6126" x2="326.588" y2="56.5263" gradientUnits="userSpaceOnUse">
<stop stop-color="white"/>
<stop offset="0.9955" stop-color="#F42E85"/>
</linearGradient>
<linearGradient id="paint4_linear_64_1768" x1="211.461" y1="63.8703" x2="211.461" y2="148.722" gradientUnits="userSpaceOnUse">
<stop stop-color="white"/>
<stop offset="0.9955" stop-color="#F42E85"/>
</linearGradient>
<linearGradient id="paint5_linear_64_1768" x1="312.569" y1="65.1252" x2="312.569" y2="151.96" gradientUnits="userSpaceOnUse">
<stop stop-color="white"/>
<stop offset="0.9955" stop-color="#F42E85"/>
</linearGradient>
<linearGradient id="paint6_linear_64_1768" x1="410.8" y1="65.3328" x2="410.8" y2="148.722" gradientUnits="userSpaceOnUse">
<stop stop-color="white"/>
<stop offset="0.9955" stop-color="#F42E85"/>
</linearGradient>
<linearGradient id="paint7_linear_64_1768" x1="13.9016" y1="86.6881" x2="152.126" y2="86.6881" gradientUnits="userSpaceOnUse">
<stop stop-color="#FAED9A"/>
<stop offset="0.9955" stop-color="#F43187"/>
</linearGradient>
</defs>
</svg>
