<svg width="404" height="91" viewBox="0 0 404 91" fill="none" xmlns="http://www.w3.org/2000/svg">
<rect x="0.5" y="10.9692" width="403" height="79.531" stroke="#F4378A"/>
<rect x="5.34814" y="15.8008" width="393.304" height="69.8673" fill="url(#paint0_linear_44_540)" stroke="#F4378A" stroke-dasharray="5 5"/>
<path d="M43.7085 0.5C45.5485 0.5 47.2863 1.26609 48.48 2.66016C49.6696 4.04965 50.3476 6.09768 50.0005 8.71191L49.9995 8.71973C49.8556 9.9378 49.0497 11.2701 47.8491 12.8086C47.2559 13.5688 46.5842 14.3583 45.8765 15.1924C45.1762 16.0177 44.4423 16.8839 43.7329 17.792L37.0015 24.9697L30.27 17.792C29.5608 16.8842 28.8285 16.0174 28.1284 15.1924C27.4206 14.3582 26.7481 13.5689 26.1548 12.8086C24.9543 11.2702 24.1493 9.93773 24.0054 8.71973C23.6966 6.10426 24.3934 4.05378 25.5942 2.66211C26.7986 1.26638 28.5368 0.500021 30.3765 0.5C32.9937 0.5 35.325 2.44701 36.3403 5.32031V6.04004L37.2876 6.26367C37.3329 6.17338 37.3602 6.09875 37.3804 6.04004H37.6636V5.32715C38.7585 2.44531 41.0929 0.500022 43.7085 0.5Z" fill="url(#paint1_linear_44_540)" stroke="#F4378A"/>
<path d="M78.9473 0.5C80.7873 0.5 82.5251 1.26609 83.7188 2.66016C84.9084 4.04965 85.5864 6.09768 85.2393 8.71191L85.2383 8.71973C85.0944 9.9378 84.2885 11.2701 83.0879 12.8086C82.4946 13.5688 81.823 14.3583 81.1152 15.1924C80.415 16.0177 79.6811 16.8839 78.9717 17.792L72.2402 24.9697L65.5088 17.792C64.7995 16.8842 64.0673 16.0174 63.3672 15.1924C62.6594 14.3582 61.9869 13.5689 61.3936 12.8086C60.1931 11.2702 59.3881 9.93773 59.2441 8.71973C58.9354 6.10426 59.6322 4.05378 60.833 2.66211C62.0374 1.26638 63.7756 0.500021 65.6152 0.5C68.2325 0.5 70.5638 2.44701 71.5791 5.32031V6.04004L72.5264 6.26367C72.5716 6.17338 72.5989 6.09875 72.6191 6.04004H72.9023V5.32715C73.9973 2.44531 76.3317 0.500022 78.9473 0.5Z" fill="url(#paint2_linear_44_540)" stroke="#F4378A"/>
<path d="M114.004 0.5C115.844 0.5 117.582 1.26609 118.776 2.66016C119.966 4.04965 120.643 6.09767 120.296 8.71191L120.295 8.71973C120.151 9.9378 119.346 11.2701 118.145 12.8086C117.552 13.5688 116.88 14.3583 116.172 15.1924C115.472 16.0177 114.738 16.8839 114.029 17.792L107.297 24.9697L100.566 17.792C99.8567 16.8842 99.1244 16.0174 98.4243 15.1924C97.7165 14.3582 97.044 13.5689 96.4507 12.8086C95.2502 11.2702 94.4452 9.93773 94.3013 8.71973C93.9925 6.10426 94.6893 4.05378 95.8901 2.66211C97.0945 1.26638 98.8327 0.500021 100.672 0.5C103.29 0.5 105.621 2.44701 106.636 5.32031V6.04004L107.583 6.26367C107.629 6.17338 107.656 6.09875 107.676 6.04004H107.959V5.32715C109.054 2.44531 111.389 0.500024 114.004 0.5Z" fill="url(#paint3_linear_44_540)" stroke="#F4378A"/>
<path d="M387.032 72.1724C389.435 72.1724 391.38 74.1135 391.38 76.5044C391.38 78.8952 389.435 80.8364 387.032 80.8364C384.629 80.8362 382.684 78.895 382.684 76.5044C382.684 74.1137 384.629 72.1726 387.032 72.1724Z" fill="#F9E098" stroke="#F4378A"/>
<path d="M369.256 72.1724C371.659 72.1724 373.604 74.1135 373.604 76.5044C373.604 78.8952 371.659 80.8364 369.256 80.8364C366.853 80.8362 364.908 78.895 364.908 76.5044C364.908 74.1137 366.853 72.1726 369.256 72.1724Z" fill="#F9E098" stroke="#F4378A"/>
<defs>
<linearGradient id="paint0_linear_44_540" x1="202" y1="86.168" x2="202" y2="15.3008" gradientUnits="userSpaceOnUse">
<stop stop-color="#F42E85"/>
<stop offset="1" stop-color="white"/>
</linearGradient>
<linearGradient id="paint1_linear_44_540" x1="37.0115" y1="0" x2="37.0115" y2="25.6894" gradientUnits="userSpaceOnUse">
<stop stop-color="#F4378A"/>
<stop offset="1" stop-color="#F9E098"/>
</linearGradient>
<linearGradient id="paint2_linear_44_540" x1="72.2503" y1="0" x2="72.2503" y2="25.6894" gradientUnits="userSpaceOnUse">
<stop stop-color="#F4378A"/>
<stop offset="1" stop-color="#F9E098"/>
</linearGradient>
<linearGradient id="paint3_linear_44_540" x1="107.307" y1="0" x2="107.307" y2="25.6894" gradientUnits="userSpaceOnUse">
<stop stop-color="#F4378A"/>
<stop offset="1" stop-color="#F9E098"/>
</linearGradient>
</defs>
</svg>
